{
  "accessors": [
    {
      "bufferView": 2,
      "componentType": 5126,
      "count": 314,
      "max": [
        1.012553095817566,
        0.12977075576782227,
        0.2738492488861084
      ],
      "min": [
        -1.0125534534454346,
        -0.19527792930603027,
        -0.2557651996612549
      ],
      "type": "VEC3"
    },
    {
      "bufferView": 2,
      "byteOffset": 3768,
      "componentType": 5126,
      "count": 314,
      "max": [
        0.8482522368431091,
        0.999556303024292,
        0.9754263758659363
      ],
      "min": [
        -0.8482522368431091,
        -0.9899046421051025,
        -0.9998831748962402
      ],
      "type": "VEC3"
    },
    {
      "bufferView": 1,
      "componentType": 5126,
      "count": 314,
      "max": [
        0.9999274611473083,
        0.5267329216003418
      ],
      "min": [
        7.256610842887312e-05,
        7.256610842887312e-05
      ],
      "type": "VEC2"
    },
    {
      "bufferView": 0,
      "componentType": 5125,
      "count": 1638,
      "type": "SCALAR"
    }
  ],
  "asset": {
    "extras": {
      "author": "wewwuworks (https://sketchfab.com/Ensign_Crusher)",
      "license": "CC-BY-4.0 (http://creativecommons.org/licenses/by/4.0/)",
      "source": "https://sketchfab.com/3d-models/mustache-3faa2f523b4f4445bb890f139ce6f715",
      "title": "Mustache"
    },
    "generator": "Sketchfab-12.65.0",
    "version": "2.0"
  },
  "bufferViews": [
    {
      "buffer": 0,
      "byteLength": 6552,
      "name": "floatBufferViews",
      "target": 34963
    },
    {
      "buffer": 0,
      "byteLength": 2512,
      "byteOffset": 6552,
      "byteStride": 8,
      "name": "floatBufferViews",
      "target": 34962
    },
    {
      "buffer": 0,
      "byteLength": 7536,
      "byteOffset": 9064,
      "byteStride": 12,
      "name": "floatBufferViews",
      "target": 34962
    }
  ],
  "buffers": [
    {
      "byteLength": 16600,
      "uri": "scene.bin"
    }
  ],
  "materials": [
    {
      "doubleSided": true,
      "name": "Wood",
      "pbrMetallicRoughness": {
        "baseColorFactor": [
          0.626662,
          0.32605,
          0.133139,
          1.0
        ],
        "metallicFactor": 0.0,
        "roughnessFactor": 0.8239417257461427
      }
    }
  ],
  "meshes": [
    {
      "name": "Mustache_Wood_0",
      "primitives": [
        {
          "attributes": {
            "NORMAL": 1,
            "POSITION": 0,
            "TEXCOORD_0": 2
          },
          "indices": 3,
          "material": 0,
          "mode": 4
        }
      ]
    }
  ],
  "nodes": [
    {
      "children": [
        1
      ],
      "matrix": [
        1.0,
        0.0,
        0.0,
        0.0,
        0.0,
        2.220446049250313e-16,
        -1.0,
        0.0,
        0.0,
        1.0,
        2.220446049250313e-16,
        0.0,
        0.0,
        0.0,
        0.0,
        1.0
      ],
      "name": "Sketchfab_model"
    },
    {
      "children": [
        2
      ],
      "matrix": [
        1.0,
        0.0,
        0.0,
        0.0,
        0.0,
        0.0,
        1.0,
        0.0,
        0.0,
        -1.0,
        0.0,
        0.0,
        0.0,
        0.0,
        0.0,
        1.0
      ],
      "name": "f82f49aefeb1419589f83a212acbff85.fbx"
    },
    {
      "children": [
        3
      ],
      "name": "RootNode"
    },
    {
      "children": [
        4
      ],
      "matrix": [
        100.0,
        0.0,
        0.0,
        0.0,
        0.0,
        -1.629206793918314e-05,
        -99.99999999999868,
        0.0,
        0.0,
        99.99999999999868,
        -1.629206793918314e-05,
        0.0,
        0.0,
        0.0,
        0.0,
        1.0
      ],
      "name": "Mustache"
    },
    {
      "mesh": 0,
      "name": "Mustache_Wood_0"
    }
  ],
  "scene": 0,
  "scenes": [
    {
      "name": "Sketchfab_Scene",
      "nodes": [
        0
      ]
    }
  ]
}
